<?xml version="1.0" standalone="no"?>
<!DOCTYPE svg PUBLIC "-//W3C//DTD SVG 20010904//EN"
 "http://www.w3.org/TR/2001/REC-SVG-20010904/DTD/svg10.dtd">
<svg version="1.0" xmlns="http://www.w3.org/2000/svg"
 width="128.000000pt" height="128.000000pt" viewBox="0 0 128.000000 128.000000"
 preserveAspectRatio="xMidYMid meet">
<metadata>
Created by potrace 1.11, written by Peter Selinger 2001-2013
</metadata>
<g transform="translate(0.000000,128.000000) scale(0.100000,-0.100000)"
fill="#000000" stroke="none">
<path d="M554 1239 c-113 -43 -194 -174 -189 -305 1 -24 -2 -44 -6 -44 -5 0
-9 5 -9 10 0 6 -19 10 -41 10 l-42 0 8 -200 c4 -131 3 -200 -3 -200 -6 0 -10
-30 -10 -70 0 -45 -6 -79 -15 -93 -8 -13 -15 -52 -16 -94 l-2 -73 95 3 c55 1
96 6 97 12 1 5 2 17 3 25 1 10 10 14 26 13 21 -2 22 -1 8 7 -19 11 -13 44 6
33 6 -3 6 -1 -1 8 -7 7 -13 22 -13 34 1 20 1 20 13 0 7 -11 19 -21 27 -23 8
-2 21 -13 29 -24 13 -20 15 -20 27 -3 12 17 14 16 23 -9 6 -14 13 -26 15 -26
3 0 3 6 0 13 -3 8 2 14 11 14 23 0 19 -10 -21 -51 -19 -20 -30 -35 -23 -34 9
2 14 -14 15 -57 1 -33 2 -66 3 -73 1 -9 24 -12 86 -10 68 1 85 4 81 15 -3 8
-2 11 4 8 5 -3 9 23 9 65 0 38 -5 72 -10 75 -5 4 -14 15 -20 27 -8 15 -8 19 0
14 6 -4 11 -5 11 -1 0 3 -10 10 -22 16 l-23 10 23 -5 c15 -3 25 1 29 11 5 14
8 13 21 -3 13 -17 14 -17 8 -1 -4 14 1 21 23 28 16 6 33 20 38 32 10 20 11 18
12 -15 4 -71 5 -78 18 -78 7 0 13 -4 13 -9 0 -17 -15 -19 -35 -5 -10 8 -15 14
-9 14 5 0 2 6 -7 13 -9 7 -16 16 -17 22 0 5 -5 10 -11 11 -7 2 -7 0 -2 -2 7
-4 5 -14 -5 -28 -14 -22 -13 -24 13 -40 27 -17 28 -17 7 1 -22 20 -21 45 2 36
7 -3 11 -9 8 -14 -3 -5 2 -12 10 -15 9 -3 14 -10 11 -15 -3 -4 3 -6 14 -4 11
2 22 -3 26 -12 4 -11 9 -13 16 -6 5 5 30 7 57 3 26 -3 61 -3 77 0 l30 5 -1 78
c0 51 -5 81 -13 86 -8 5 -13 34 -13 82 0 41 -4 76 -9 79 -11 7 -12 58 -3 244
l7 159 -49 -5 -50 -5 1 39 c2 92 -48 201 -115 252 -22 16 -38 34 -37 40 1 6
-11 12 -28 13 -128 11 -142 10 -191 -8z m-184 -666 c0 -128 3 -160 16 -174 10
-11 12 -19 5 -24 -6 -3 -11 -1 -11 4 0 6 -6 11 -13 11 -10 0 -13 39 -14 175 0
100 3 172 8 169 5 -3 9 -75 9 -161z m567 -35 c-3 -111 -7 -140 -21 -153 -22
-23 -34 -10 -13 13 14 16 17 44 18 178 0 115 3 151 10 129 5 -16 8 -92 6 -167z
m-397 -269 c0 -6 -4 -7 -10 -4 -5 3 -10 11 -10 16 0 6 5 7 10 4 6 -3 10 -11
10 -16z"/>
<path d="M820 270 c6 -11 12 -20 14 -20 2 0 2 9 -1 20 -3 11 -9 20 -15 20 -5
0 -4 -9 2 -20z"/>
<path d="M470 259 c-11 -8 -9 -9 10 -3 22 6 23 5 11 -10 -9 -10 -10 -16 -2
-16 6 0 11 5 11 11 0 5 6 7 13 3 8 -5 8 -2 -2 9 -16 20 -21 20 -41 6z"/>
<path d="M740 245 c0 -8 4 -15 10 -15 5 0 7 7 4 15 -4 8 -8 15 -10 15 -2 0 -4
-7 -4 -15z"/>
<path d="M523 233 c-15 -5 -17 -23 -4 -23 5 0 11 7 15 15 3 8 4 15 3 14 -1 0
-8 -3 -14 -6z"/>
<path d="M436 217 c3 -10 9 -15 12 -12 3 3 0 11 -7 18 -10 9 -11 8 -5 -6z"/>
<path d="M460 197 c-12 -20 -12 -21 3 -8 9 7 24 11 32 7 21 -8 19 1 -3 13 -14
7 -21 5 -32 -12z"/>
<path d="M536 201 c-4 -5 3 -7 14 -4 23 6 26 13 6 13 -8 0 -17 -4 -20 -9z"/>
<path d="M755 200 c-3 -5 -1 -10 4 -10 6 0 11 5 11 10 0 6 -2 10 -4 10 -3 0
-8 -4 -11 -10z"/>
</g>
</svg>
